<?xml version="1.0" standalone="no"?><!DOCTYPE svg PUBLIC "-//W3C//DTD SVG 1.1//EN" "http://www.w3.org/Graphics/SVG/1.1/DTD/svg11.dtd"><svg t="1669429359102" class="icon" viewBox="0 0 1024 1024" version="1.1" xmlns="http://www.w3.org/2000/svg" p-id="2733" xmlns:xlink="http://www.w3.org/1999/xlink" width="200" height="200"><path d="M960 480h-65.6C879.2 293.6 730.4 144.8 544 129.6V64h-64v65.6C293.6 144.8 144.8 293.6 129.6 480H64v64h65.6c15.2 186.4 164 335.2 350.4 350.4v65.6h64v-65.6c186.4-15.2 335.2-164 350.4-350.4h65.6v-64z m-448 352c-176.8 0-320-143.2-320-320s143.2-320 320-320 320 143.2 320 320-143.2 320-320 320z m128-320c0 70.4-57.6 128-128 128s-128-57.6-128-128 57.6-128 128-128 128 57.6 128 128z" p-id="2734"></path></svg>